# xmcd
#
# Track frame offsets:
#	150
#	13795
#	23567
#	36027
#	49175
#	64480
#	76272
#	86985
#	98587
#	115880
#	130505
#	139377
#	152140
#	164537
#	178290
#	187697
#	199412
#	209335
#	221652
#	230087
#	241250
#	253650
#	267267
#	281855
#	293300
#	305750
#	318062
#
# Disc length: 4382 seconds
#
# Revision: 2
# Processed by: cddbd v1.5.2PL0 Copyright (c) Steve Scherf et al.
# Submitted via: EasyCDDAExtractor 11.0.0.1
#
DISCID=8b111c1b
DTITLE=The Country Gentlemen - The Early Rebel Recordings  Disc Two
DYEAR=1998
DGENRE=Country
TTITLE0=When They Ring Those Golden Bells
TTITLE1=Buffalo Girls
TTITLE2=A Beautiful Life
TTITLE3=I'm Working On The Road
TTITLE4=A Border Affair
TTITLE5=Johnny Reb
TTITLE6=Many A Mile
TTITLE7=Amelia Earhart's Last Flight
TTITLE8=Lord, I'm Coming Home
TTITLE9=The Traveler
TTITLE10=Silver Bells
TTITLE11=Theme From Exodus
TTITLE12=Love And Wealth
TTITLE13=He Was A Friend Of Mine
TTITLE14=Daybreak In Dixie
TTITLE15=Some Old Day
TTITLE16=Raggy Mountain Shakedown
TTITLE17=Banana Boat Song
TTITLE18=Going To The Races
TTITLE19=Waiting For The Boys To Come Home
TTITLE20=Darling Little Joe
TTITLE21=El Dedo
TTITLE22=I'll Be There Mary Dear
TTITLE23=Blue Ridge Cabin Home
TTITLE24=Take Me in Your Lifeboat
TTITLE25=The Sentence
TTITLE26=Where I'm Bound
EXTD=
EXTT0=
EXTT1=
EXTT2=
EXTT3=
EXTT4=
EXTT5=
EXTT6=
EXTT7=
EXTT8=
EXTT9=
EXTT10=
EXTT11=
EXTT12=
EXTT13=
EXTT14=
EXTT15=
EXTT16=
EXTT17=
EXTT18=
EXTT19=
EXTT20=
EXTT21=
EXTT22=
EXTT23=
EXTT24=
EXTT25=
EXTT26=
PLAYORDER=
